<svg width="20" height="20" viewBox="0 0 20 20" fill="none" xmlns="http://www.w3.org/2000/svg">
  <path d="M10 2C5.58 2 2 5.58 2 10C2 14.42 5.58 18 10 18C14.42 18 18 14.42 18 10C18 5.58 14.42 2 10 2ZM9 16.4C6.02 15.92 4 13.2 4 10C4 9.52 4.06 9.04 4.14 8.6L7 11.46V12C7 13.1 7.9 14 9 14V16.4ZM14.86 13.52C14.64 12.64 13.86 12 13 12H12V9C12 8.45 11.55 8 11 8H6V6H8C8.55 6 9 5.55 9 5V4.34C11.68 4.88 13.74 7.02 13.98 9.76C14.02 9.46 14.4 9.2 14.8 9.2C15.44 9.2 15.96 9.72 15.96 10.36C15.96 10.88 15.58 11.32 15.08 11.44C15.42 12.22 15.66 13.08 15.72 14C15.94 13.36 16 12.7 16 12C16 8.8 13.98 6.06 11 5.14V6C11 7.1 10.1 8 9 8H8.4L5.3 4.9C6.64 3.14 8.69 2 11 2C14.42 2 17 4.58 17 8C17 10.04 16.14 11.86 14.86 13.52Z" fill="currentColor"/>
</svg> 